<?xml version="1.0" encoding="UTF-8" standalone="no"?>
<!-- Created with Inkscape (http://www.inkscape.org/) -->

<svg
   xmlns:dc="http://purl.org/dc/elements/1.1/"
   xmlns:cc="http://creativecommons.org/ns#"
   xmlns:rdf="http://www.w3.org/1999/02/22-rdf-syntax-ns#"
   xmlns:svg="http://www.w3.org/2000/svg"
   xmlns="http://www.w3.org/2000/svg"
   xmlns:sodipodi="http://sodipodi.sourceforge.net/DTD/sodipodi-0.dtd"
   xmlns:inkscape="http://www.inkscape.org/namespaces/inkscape"
   width="358mm"
   height="114mm"
   viewBox="0 0 1268.5036 403.93701"
   id="svg2"
   version="1.1"
   inkscape:version="0.91 r13725"
   sodipodi:docname="kela_logo.svg">
  <defs
     id="defs4" />
  <sodipodi:namedview
     id="base"
     pagecolor="#ffffff"
     bordercolor="#666666"
     borderopacity="1.0"
     inkscape:pageopacity="0.0"
     inkscape:pageshadow="2"
     inkscape:zoom="0.35"
     inkscape:cx="1011.7483"
     inkscape:cy="517.14286"
     inkscape:document-units="px"
     inkscape:current-layer="layer1"
     showgrid="false"
     inkscape:window-width="1920"
     inkscape:window-height="1058"
     inkscape:window-x="-8"
     inkscape:window-y="-8"
     inkscape:window-maximized="1" />
  <metadata
     id="metadata7">
    <rdf:RDF>
      <cc:Work
         rdf:about="">
        <dc:format>image/svg+xml</dc:format>
        <dc:type
           rdf:resource="http://purl.org/dc/dcmitype/StillImage" />
        <dc:title></dc:title>
      </cc:Work>
    </rdf:RDF>
  </metadata>
  <g
     inkscape:label="Layer 1"
     inkscape:groupmode="layer"
     id="layer1"
     transform="translate(0,-648.4252)">
    <g
       transform="matrix(3.0437918,0,0,-3.0437918,19.260633,1052.8397)"
       inkscape:label="ink_ext_XXXXXX"
       id="g4144">
      <g
         transform="scale(0.1,0.1)"
         id="g4146">
        <path
           inkscape:connector-curvature="0"
           id="path4148"
           style="fill:#fab20b;fill-opacity:1;fill-rule:nonzero;stroke:none"
           d="m 4090.3,1061.94 c 0,-134.479 -108.99,-243.487 -243.48,-243.487 -134.49,0 -243.48,109.008 -243.48,243.487 0,134.48 108.99,243.48 243.48,243.48 134.49,0 243.48,-109 243.48,-243.48" />
        <path
           inkscape:connector-curvature="0"
           id="path4150"
           style="fill:#ffffff;fill-opacity:1;fill-rule:nonzero;stroke:none"
           d="m 3711.31,1248.3 -32.4,-347.831 106.25,0 9.69,78.461 c 0,0 4.04,43.25 50.19,44.98 46.14,1.73 52.51,-44.418 52.51,-44.418 l 7.01,-79.023 111.22,0 -32.74,347.831 -50.77,0 0,-21.33 -58.37,0 0,21.33 -53.56,0 0,-21.9 -57.78,0 0,21.9" />
        <path
           inkscape:connector-curvature="0"
           id="path4152"
           style="fill:#fab20b;fill-opacity:1;fill-rule:nonzero;stroke:none"
           d="m 3896.46,1125.4 c 0,-28.38 -22.99,-51.38 -51.39,-51.38 -28.36,0 -51.37,23 -51.37,51.38 0,28.37 23.01,51.38 51.37,51.38 28.4,0 51.39,-23.01 51.39,-51.38" />
        <path
           inkscape:connector-curvature="0"
           id="path4154"
           style="fill:#204495;fill-opacity:1;fill-rule:nonzero;stroke:none"
           d="m 3346.25,447.504 c -42.5,-22.5 -36.25,-72.5 -36.25,-72.5 0,0 0,-52.5 48.75,-65 48.75,-12.504 83.75,38.75 83.75,38.75 l 1.25,111.25 c 0,0 -80,-5 -97.5,-12.5 z m -173.75,250 c 0,0 111.26,73.75 223.75,73.75 9.99,0 96.25,-6.25 117.5,-25 90,-42.5 68.75,-163.75 68.75,-163.75 l 0,-203.738 c 0,0 -12.5,-51.262 46.25,-92.516 -3.75,-7.5 -66.25,-85 -73.75,-85 -57.5,22.5 -73.75,66.25 -73.75,66.25 0,0 -37.5,-65 -143.74,-60 -69.99,0 -117.51,33.75 -117.51,33.75 0,0 -63.75,47.5 -60,142.504 3.75,95 55,115 62.5,125 61.25,46.25 150,45 150,45 l 75,3.75 c 0,0 0,45 -2.5,55 -7.5,48.75 -51.25,42.5 -60,43.75 -28.75,0 -86.25,-21.25 -86.25,-21.25 l -67.5,-37.5 -58.75,100" />
        <path
           inkscape:connector-curvature="0"
           id="path4156"
           style="fill:#204495;fill-opacity:1;fill-rule:nonzero;stroke:none"
           d="m 2765,615.004 0,-256.25 c 0,0 80,-73.754 143.75,-1.25 8.75,5 32.5,58.75 27.5,153.75 -5,95 -13.75,115 -35,130 -57.5,41.25 -136.25,-26.25 -136.25,-26.25 z m -136.25,33.75 -6.25,98.75 122.5,23.75 7.5,-50 c 0,0 48.75,50 128.75,50 80,0 146.25,-58.75 163.75,-91.25 50,-82.5 42.5,-186.25 42.5,-186.25 0,0 1.25,-147.5 -71.25,-215.004 -72.5,-67.5 -126.27,-61.25 -151.26,-61.25 -56.24,-5 -102.49,27.5 -102.49,27.5 l 0,-208.75 L 2630,0 l -1.25,648.754" />
        <path
           inkscape:connector-curvature="0"
           id="path4158"
           style="fill:#204495;fill-opacity:1;fill-rule:nonzero;stroke:none"
           d="m 2185,947.504 391.25,1.25 -15,-117.5 -230,1.25 0,-166.25 183.75,0 0,-117.5 -185,-1.25 1.25,-318.754 -145,-1.25 -1.25,720.004" />
        <path
           inkscape:connector-curvature="0"
           id="path4160"
           style="fill:#204495;fill-opacity:1;fill-rule:nonzero;stroke:none"
           d="m 1952.5,11.25 68.75,0 0,1001.25 -68.75,0 0,-1001.25 z" />
        <path
           inkscape:connector-curvature="0"
           id="path4162"
           style="fill:#204495;fill-opacity:1;fill-rule:nonzero;stroke:none"
           d="m 1542.5,442.504 c -6.25,-2.5 -48.75,-35 -20,-102.5 35,-63.754 122.5,-6.25 123.75,6.25 2.5,6.25 2.5,112.5 2.5,112.5 0,0 -95,-1.25 -106.25,-16.25 z m 27.5,325 c 15.01,-0.004 57.5,7.5 123.75,-11.25 93.75,-25 95,-136.25 95,-136.25 0,0 -2.5,-222.5 -3.75,-231.25 -7.5,-70 47.5,-102.504 47.5,-102.504 0,0 -73.75,-90 -72.5,-86.25 -65,32.5 -73.75,65 -73.75,65 0,0 -53.75,-62.5 -143.75,-57.5 -90,5 -132.5,35 -155,73.75 -22.5,38.754 -38.75,133.754 11.25,201.254 50,67.5 180,72.5 180,72.5 l 71.25,0 c 0,0 0,41.25 -1.25,47.5 -3.75,47.5 -28.75,48.75 -56.25,53.75 -27.5,5 -85,-18.75 -85,-18.75 l -72.5,-40 -58.75,98.75 c 0,0 106.25,55 193.75,71.25" />
        <path
           inkscape:connector-curvature="0"
           id="path4164"
           style="fill:#204495;fill-opacity:1;fill-rule:nonzero;stroke:none"
           d="m 1108.75,965.004 137.5,31.25 11.25,-77.5 c 0,0 1.25,-540 0,-545 0,-83.754 50,-62.5 50,-62.5 l 25,-80.004 c 0,0 -56.25,-28.75 -140,-6.25 -83.75,22.5 -78.75,153.754 -78.75,153.754 0,0 -1.25,562.5 0,537.5 0,-5 -5,48.75 -5,48.75" />
        <path
           inkscape:connector-curvature="0"
           id="path4166"
           style="fill:#204495;fill-opacity:1;fill-rule:nonzero;stroke:none"
           d="m 0,948.754 147.5,0 0,-325 205,325 180,0 -230,-333.75 255,-387.504 -188.75,0 -220,373.754 0,-373.754 -148.75,0 0,721.254" />
        <path
           inkscape:connector-curvature="0"
           id="path4168"
           style="fill:#204495;fill-opacity:1;fill-rule:nonzero;stroke:none"
           d="m 710,551.254 162.5,0 c 0,0 5,116.25 -81.25,116.25 C 705,667.504 710,551.254 710,551.254 Z m 74.996,220.008 C 1055,781.254 1016.25,450.004 1016.25,450.004 l -307.5,0 c 0,0 -12.5,-200.004 207.5,-108.75 7.5,2.5 37.5,27.5 37.5,27.5 l 55,-81.254 c 0,0 -60,-72.5 -197.5,-76.25 C 673.75,207.5 600,323.754 600,323.754 c 0,0 -41.25,63.75 -42.5,171.25 -1.25,107.5 45,173.75 45,173.75 0,0 59.996,102.508 182.496,102.508" />
        <path
           inkscape:connector-curvature="0"
           id="path4170"
           style="fill:none;stroke:#204495;stroke-width:5;stroke-linecap:butt;stroke-linejoin:miter;stroke-miterlimit:4;stroke-dasharray:none;stroke-opacity:1"
           d="m 710,551.254 162.5,0 c 0,0 5,116.25 -81.25,116.25 C 705,667.504 710,551.254 710,551.254 Z m 74.996,220.008 C 1055,781.254 1016.25,450.004 1016.25,450.004 l -307.5,0 c 0,0 -12.5,-200.004 207.5,-108.75 7.5,2.5 37.5,27.5 37.5,27.5 l 55,-81.254 c 0,0 -60,-72.5 -197.5,-76.25 C 673.75,207.5 600,323.754 600,323.754 c 0,0 -41.25,63.75 -42.5,171.25 -1.25,107.5 45,173.75 45,173.75 0,0 59.996,102.508 182.496,102.508 z" />
      </g>
    </g>
  </g>
</svg>
